<svg width="343" height="266" viewBox="0 0 343 266" fill="none" xmlns="http://www.w3.org/2000/svg">
<path d="M9 160.5V106C9 103.239 11.2386 101 14 101H72.8315C74.2149 101 75.5365 100.427 76.4819 99.4168L124.85 47.7419C127.948 44.4312 133.5 46.6241 133.5 51.1587V209.792C133.5 214.194 128.222 216.448 125.042 213.404L76.4501 166.888C75.5195 165.997 74.2809 165.5 72.9926 165.5H14C11.2386 165.5 9 163.261 9 160.5Z" stroke="black" stroke-width="18"/>
<path d="M171 179C171 179 206 171.45 206 131.712C206 91.9738 171 88 171 88" stroke="black" stroke-width="18" stroke-linecap="round"/>
<path d="M215 222C215 222 266.5 198.5 266.5 131.5C266.5 64.5 215 40 215 40" stroke="black" stroke-width="18" stroke-linecap="round"/>
<path d="M260 257C260 257 331.5 221 333 129.5C334.5 38 260 9 260 9" stroke="black" stroke-width="18" stroke-linecap="round"/>
</svg>
